<svg width="17" height="17" viewBox="0 0 17 17" fill="none" xmlns="http://www.w3.org/2000/svg">
<g clip-path="url(#clip0_113_1051)">
<path d="M0.197251 1.15025C-0.0657502 0.887252 -0.0657502 0.46073 0.197251 0.197595C0.460251 -0.0655396 0.88678 -0.0655396 1.14992 0.197595L8.49996 7.54752L15.85 0.197595C16.113 -0.0655396 16.5395 -0.0655396 16.8028 0.197595C17.0658 0.460592 17.0658 0.887252 16.8028 1.15025L9.45249 8.50004L16.8027 15.8501C17.0657 16.1131 17.0657 16.5396 16.8027 16.8028C16.5395 17.0659 16.113 17.0659 15.8499 16.8028L8.49983 9.45283L1.14992 16.8028C0.886918 17.0659 0.46039 17.0659 0.197251 16.8028C-0.0657502 16.5398 -0.0657502 16.1132 0.197251 15.8501L7.5473 8.50004L0.197251 1.15025Z" fill="black"/>
</g>
<defs>
<clipPath id="clip0_113_1051">
<rect width="17" height="17" fill="white"/>
</clipPath>
</defs>
</svg>
