<svg width="346" height="276" viewBox="0 0 346 276" fill="none" xmlns="http://www.w3.org/2000/svg">
<path d="M311.297 125.518C326.055 133.436 326.055 154.599 311.297 162.517L131.862 258.786C117.877 266.289 100.944 256.157 100.944 240.286V47.7491C100.944 31.8775 117.877 21.7461 131.862 29.2492L311.297 125.518Z" fill="#1899E9"/>
<path d="M233.905 125.518C248.664 133.436 248.664 154.599 233.905 162.517L54.4705 258.786C40.4848 266.289 23.552 256.157 23.552 240.286V47.7491C23.552 31.8775 40.4848 21.7461 54.4705 29.2492L233.905 125.518Z" fill="#55C8FF"/>
<path d="M233.35 126C248.108 133.918 249.5 155 233.35 163.815L100.944 234.9L100.95 55.2L233.35 126Z" fill="#1178C1"/>
</svg>
